HIERARCHY
ROOT cup1
{
	OFFSET 0.000000 0.000000 0.000000
	CHANNELS 6 Xposition Yposition Zposition Yrotation Xrotation Zrotation
	End Site
	{
		OFFSET 0.000000 0.000000 0.000000
	}
}
MOTION
Frames: 206
Frame Time: 0.008333334
1.544233 3.494126 2.723275 -25.640170 -0.207611 0.738176 
1.544233 3.494126 2.723275 -25.640170 -0.207611 0.738176 
1.544636 3.494219 2.724080 -25.593750 -0.220551 0.763791 
1.545039 3.494311 2.724885 -25.547330 -0.233551 0.789396 
1.545479 3.494387 2.725242 -25.541600 -0.185242 0.809436 
1.545809 3.494578 2.725641 -25.537230 -0.239685 0.778463 
1.546139 3.494769 2.726041 -25.532840 -0.294098 0.747486 
1.545913 3.494627 2.725862 -25.519380 -0.220825 0.759769 
1.545686 3.494486 2.725684 -25.505890 -0.147583 0.772068 
1.544553 3.494535 2.725269 -25.568790 -0.157532 0.777833 
1.543906 3.494387 2.725333 -25.538020 -0.257202 0.791106 
1.543189 3.494354 2.724571 -25.640990 -0.134735 0.693094 
1.543102 3.494269 2.724230 -25.639770 -0.163635 0.703602 
1.543048 3.494273 2.723963 -25.644470 -0.170685 0.731259 
1.542995 3.494277 2.723697 -25.649170 -0.177734 0.758917 
1.542941 3.494281 2.723430 -25.653870 -0.184784 0.786576 
1.542659 3.494211 2.723207 -25.662750 -0.238220 0.768492 
1.542511 3.494269 2.723005 -25.676150 -0.225952 0.746371 
1.542410 3.494092 2.722959 -25.682740 -0.276245 0.822424 
1.542189 3.494042 2.722795 -25.692440 -0.261780 0.826034 
1.541967 3.493991 2.722631 -25.702150 -0.247315 0.829640 
1.541781 3.493711 2.722647 -25.698580 -0.271973 0.863751 
1.541541 3.493897 2.722279 -25.703400 -0.289795 0.909331 
1.541467 3.493580 2.722368 -25.702360 -0.294617 0.927077 
1.541297 3.493621 2.721998 -25.726410 -0.332947 0.955023 
1.541273 3.493527 2.721437 -25.696990 -0.310028 0.866099 
1.541107 3.493418 2.721026 -25.676480 -0.304596 0.864330 
1.540942 3.493308 2.720615 -25.656010 -0.299133 0.862564 
1.540664 3.493285 2.719852 -25.587340 -0.270874 0.851811 
1.540066 3.493119 2.719555 -25.583890 -0.291687 0.939673 
1.539898 3.492972 2.719062 -25.604030 -0.381409 0.986917 
1.539881 3.493016 2.718964 -25.603520 -0.343140 0.909650 
1.539979 3.493029 2.718612 -25.636840 -0.405029 0.990845 
1.540180 3.492987 2.718645 -25.625640 -0.374115 0.922683 
1.540133 3.492885 2.718938 -25.621120 -0.322571 0.878482 
1.540005 3.493057 2.718924 -25.635620 -0.319672 0.846745 
1.540252 3.493092 2.719043 -25.599880 -0.315277 0.849137 
1.539928 3.493288 2.719229 -25.600920 -0.356323 0.988979 
1.539690 3.493356 2.719541 -25.625000 -0.336060 0.994128 
1.539532 3.493191 2.720080 -25.660310 -0.318176 0.954383 
1.539503 3.493188 2.720302 -25.652340 -0.310638 0.953507 
1.539662 3.493379 2.720741 -25.685610 -0.294861 0.967269 
1.539759 3.493266 2.720662 -25.649170 -0.300415 0.945996 
1.539976 3.493401 2.721056 -25.670100 -0.292328 0.957221 
1.539990 3.493344 2.721129 -25.691650 -0.280792 0.936757 
1.539782 3.493478 2.720773 -25.717100 -0.319000 1.014394 
1.539736 3.493462 2.720546 -25.690610 -0.326996 1.040027 
1.539446 3.493341 2.720146 -25.651920 -0.320343 1.003594 
1.539373 3.493246 2.720111 -25.658720 -0.294312 0.942896 
1.539220 3.493223 2.720067 -25.637570 -0.315857 0.991124 
1.538827 3.493511 2.720172 -25.721410 -0.357819 0.994269 
1.538817 3.493420 2.720446 -25.764530 -0.335327 0.925068 
1.538955 3.493486 2.720645 -25.750820 -0.310211 0.894665 
1.539057 3.493642 2.720700 -25.765440 -0.356842 0.966635 
1.539219 3.493589 2.720984 -25.765720 -0.344544 0.943406 
1.538854 3.493621 2.721084 -25.769780 -0.366699 1.007181 
1.538802 3.493653 2.721386 -25.790280 -0.391785 0.993603 
1.539262 3.493335 2.721756 -25.684230 -0.330109 1.031756 
1.538822 3.493654 2.721475 -25.741460 -0.408905 1.004369 
1.538735 3.493641 2.721600 -25.755620 -0.394562 0.993729 
1.538614 3.493777 2.721262 -25.787230 -0.364746 0.941456 
1.538738 3.493556 2.721839 -25.748080 -0.353424 0.958004 
1.538495 3.493872 2.721780 -25.805970 -0.279663 0.884491 
1.538787 3.493597 2.722021 -25.713010 -0.400757 0.975971 
1.538401 3.493641 2.722278 -25.744510 -0.410858 0.944145 
1.538276 3.493953 2.722650 -25.753970 -0.552185 1.022686 
1.538300 3.493897 2.722718 -25.722470 -0.480927 0.998004 
1.538663 3.493570 2.722675 -25.691930 -0.406921 1.070380 
1.538123 3.493590 2.722515 -25.768740 -0.421143 1.018466 
1.538023 3.493887 2.722122 -25.801910 -0.344666 0.908255 
1.538810 3.493424 2.722488 -25.698580 -0.353394 1.050057 
1.538222 3.493951 2.722486 -25.741390 -0.433624 1.009209 
1.538343 3.493627 2.722330 -25.717190 -0.387695 0.996869 
1.538548 3.493590 2.722304 -25.703610 -0.423431 1.046761 
1.538347 3.493630 2.722220 -25.744350 -0.434326 1.023927 
1.538322 3.493644 2.722098 -25.770080 -0.442352 1.025973 
1.538224 3.493722 2.721839 -25.790890 -0.415588 0.990743 
1.538209 3.493839 2.721458 -25.799930 -0.385590 0.922416 
1.538276 3.493567 2.721621 -25.748320 -0.432709 1.036866 
1.538438 3.493541 2.721320 -25.731230 -0.341065 0.981200 
1.538349 3.493548 2.721880 -25.691560 -0.371002 1.003710 
1.538296 3.493795 2.721976 -25.721890 -0.543579 1.104420 
1.538034 3.493753 2.721851 -25.828670 -0.413086 0.933549 
1.538545 3.493544 2.722259 -25.743160 -0.456604 0.997392 
1.538489 3.493700 2.722525 -25.761930 -0.443848 0.972769 
1.538633 3.493747 2.722828 -25.730380 -0.432648 0.969714 
1.538532 3.493548 2.723203 -25.716060 -0.320587 0.921654 
1.538629 3.493628 2.723636 -25.665990 -0.284821 0.862866 
1.538426 3.493747 2.723756 -25.690370 -0.254669 0.824430 
1.538570 3.493662 2.724205 -25.702550 -0.272186 0.866507 
1.538598 3.493548 2.724543 -25.691160 -0.249268 0.832480 
1.538517 3.493642 2.724665 -25.726040 -0.304901 0.900566 
1.538207 3.493464 2.724903 -25.740390 -0.241058 0.803508 
1.538250 3.493428 2.725255 -25.709990 -0.235535 0.809275 
1.538391 3.493499 2.725399 -25.716340 -0.267700 0.853600 
1.538339 3.493505 2.725535 -25.703160 -0.209198 0.846881 
1.538557 3.493532 2.725587 -25.702580 -0.192932 0.819412 
1.538556 3.493293 2.725600 -25.665100 -0.176178 0.763880 
1.538557 3.493448 2.725645 -25.714360 -0.173798 0.817883 
1.538207 3.493642 2.725554 -25.720370 -0.216461 0.866963 
1.538362 3.493403 2.725361 -25.723140 -0.167358 0.855313 
1.538549 3.493480 2.725479 -25.675260 -0.193756 0.812373 
1.538572 3.493678 2.725434 -25.696810 -0.198242 0.781307 
1.539010 3.493633 2.725559 -25.691860 -0.152496 0.767219 
1.539329 3.493426 2.725463 -25.734100 -0.158051 0.831509 
1.539514 3.493514 2.725863 -25.711880 -0.192810 0.801894 
1.539583 3.493536 2.726161 -25.711820 -0.188446 0.809803 
1.540070 3.493030 2.727134 -25.607240 -0.102875 0.877976 
1.539898 3.493309 2.727082 -25.607940 -0.183594 0.927923 
1.539814 3.493315 2.727138 -25.613710 -0.171356 0.915394 
1.539814 3.493049 2.727263 -25.594450 -0.120422 0.937908 
1.539403 3.493552 2.726783 -25.691190 -0.085815 0.789379 
1.539223 3.493485 2.726812 -25.683290 -0.208771 0.868842 
1.539091 3.493313 2.726429 -25.722200 -0.121033 0.790333 
1.538905 3.493408 2.726255 -25.729490 -0.206848 0.833535 
1.538817 3.493381 2.725993 -25.718290 -0.212097 0.829685 
1.538699 3.493293 2.725887 -25.705990 -0.209564 0.864995 
1.538261 3.493449 2.725564 -25.719060 -0.238312 0.867599 
1.538295 3.493359 2.725294 -25.711730 -0.244385 0.866684 
1.538158 3.493407 2.724949 -25.709260 -0.228516 0.881914 
1.538135 3.493165 2.724305 -25.759890 -0.214447 0.882427 
1.538189 3.493202 2.724136 -25.745540 -0.291901 0.907608 
1.538149 3.493272 2.723517 -25.750820 -0.277405 0.861797 
1.538334 3.493106 2.723551 -25.758610 -0.307495 0.937741 
1.538313 3.493158 2.723240 -25.729550 -0.299652 0.915741 
1.538380 3.493089 2.723339 -25.713810 -0.288147 0.919293 
1.538356 3.493113 2.723485 -25.703310 -0.263611 0.900728 
1.537994 3.493354 2.723650 -25.760650 -0.213013 0.812608 
1.538111 3.492999 2.724108 -25.736660 -0.230713 0.867038 
1.537969 3.492995 2.724245 -25.728030 -0.128479 0.791507 
1.537898 3.493071 2.724343 -25.733580 -0.242340 0.863785 
1.538030 3.493112 2.724398 -25.722200 -0.192688 0.809834 
1.538134 3.493061 2.724209 -25.736150 -0.208344 0.832516 
1.538336 3.493047 2.724138 -25.730960 -0.231140 0.867939 
1.538558 3.493188 2.724105 -25.732270 -0.247040 0.882796 
1.538542 3.493241 2.724216 -25.735260 -0.244110 0.854228 
1.538571 3.493203 2.724506 -25.706050 -0.214203 0.832440 
1.538481 3.493230 2.724584 -25.716520 -0.196686 0.809037 
1.538398 3.493024 2.724690 -25.710600 -0.134857 0.810545 
1.538403 3.493196 2.724868 -25.718230 -0.198944 0.804092 
1.538413 3.493182 2.724929 -25.721010 -0.228333 0.859272 
1.538352 3.493129 2.725067 -25.690860 -0.209808 0.856782 
1.538437 3.493249 2.724924 -25.724520 -0.206146 0.812778 
1.538579 3.493206 2.725060 -25.689480 -0.201569 0.826452 
1.538303 3.493183 2.725012 -25.715940 -0.202576 0.821389 
1.538112 3.493243 2.725015 -25.716220 -0.224213 0.847366 
1.537870 3.493112 2.725302 -25.705410 -0.207092 0.852264 
1.537917 3.492997 2.725356 -25.703430 -0.124176 0.788439 
1.537760 3.492887 2.725748 -25.674440 -0.124298 0.815593 
1.537598 3.493064 2.726129 -25.731840 -0.135437 0.834601 
1.537413 3.493198 2.726541 -25.727940 -0.105072 0.813706 
1.537249 3.493436 2.727354 -25.694890 -0.142639 0.801033 
1.537333 3.493386 2.728024 -25.660460 -0.193634 0.879965 
1.537467 3.493588 2.728553 -25.674290 -0.083099 0.796850 
1.537288 3.493593 2.729262 -25.724700 -0.136017 0.779175 
1.537449 3.493657 2.729863 -25.720490 -0.096588 0.715594 
1.537458 3.494066 2.729164 -25.770320 -0.052124 0.732505 
1.537338 3.493932 2.729849 -25.783840 -0.079742 0.633158 
1.537353 3.494125 2.729540 -25.719820 -0.110748 0.753699 
1.537403 3.494005 2.729528 -25.694210 -0.082062 0.764011 
1.537214 3.493888 2.729509 -25.696290 -0.136139 0.768703 
1.537095 3.493895 2.729038 -25.673340 -0.194946 0.829158 
1.537131 3.493505 2.728491 -25.694950 -0.071136 0.819295 
1.537219 3.493534 2.727736 -25.726200 -0.085388 0.787196 
1.537367 3.493289 2.727614 -25.689640 -0.108398 0.835227 
1.537510 3.493332 2.727152 -25.714690 -0.074310 0.828627 
1.537615 3.493436 2.726955 -25.717830 -0.111786 0.812061 
1.537566 3.493270 2.726742 -25.736180 -0.182037 0.887621 
1.537462 3.493354 2.726754 -25.732790 -0.162781 0.858291 
1.537221 3.493285 2.726774 -25.745610 -0.090302 0.794878 
1.537085 3.493256 2.726947 -25.752590 -0.100586 0.833103 
1.536993 3.493515 2.727206 -25.736480 -0.161987 0.839947 
1.537135 3.493515 2.727452 -25.711240 -0.140411 0.831690 
1.537161 3.493392 2.727661 -25.685910 -0.149323 0.868048 
1.537267 3.493535 2.727545 -25.716310 -0.162567 0.846345 
1.537309 3.493670 2.727469 -25.725710 -0.162201 0.824736 
1.537385 3.493606 2.727542 -25.718660 -0.215759 0.898313 
1.537441 3.493554 2.727540 -25.702940 -0.190979 0.885805 
1.536976 3.493877 2.727188 -25.749630 -0.226746 0.855267 
1.536921 3.493756 2.727003 -25.753690 -0.157227 0.827153 
1.536901 3.493334 2.726803 -25.758940 -0.001051 0.749850 
1.537027 3.493419 2.726832 -25.735470 -0.065674 0.809880 
1.536958 3.493500 2.726643 -25.758670 -0.074890 0.792802 
1.537051 3.493692 2.726398 -25.780430 -0.124023 0.811000 
1.536926 3.493759 2.726470 -25.773830 -0.186096 0.828051 
1.537243 3.493506 2.726584 -25.729550 0.016793 0.712664 
1.537222 3.493657 2.726764 -25.749420 -0.007294 0.692288 
1.537423 3.493652 2.727123 -25.710600 -0.064941 0.758524 
1.537117 3.493793 2.727545 -25.717160 -0.120483 0.790302 
1.537210 3.493691 2.727566 -25.714080 -0.064758 0.778675 
1.537243 3.493718 2.727630 -25.715580 -0.063171 0.773455 
1.537389 3.493667 2.727761 -25.681030 -0.031586 0.731060 
1.537587 3.493983 2.727640 -25.682920 -0.146393 0.789080 
1.537747 3.493893 2.727464 -25.706450 -0.060089 0.756603 
1.538006 3.493705 2.727432 -25.698700 0.013885 0.724328 
1.538157 3.493722 2.727307 -25.705750 0.013460 0.723365 
1.538323 3.493754 2.727099 -25.726140 0.059615 0.684594 
1.538685 3.493931 2.727037 -25.716490 -0.039856 0.704891 
1.538959 3.493893 2.727330 -25.730620 -0.072540 0.709986 
1.539296 3.493979 2.727695 -25.666780 -0.115356 0.781409 
1.539376 3.493958 2.727785 -25.727630 -0.022003 0.697334 
1.538881 3.494577 2.727938 -25.752660 -0.166626 0.767002 
1.539051 3.494700 2.728476 -25.746830 -0.194519 0.821451 
1.539091 3.494653 2.729161 -25.772550 -0.151215 0.742473 
1.538998 3.494599 2.729317 -25.837040 -0.064117 0.700332 
1.539204 3.494803 2.729730 -25.798830 -0.154480 0.729202 
